<?xml version="1.0" encoding="utf-8"?>
<svg viewBox="0 0 500 500" xmlns="http://www.w3.org/2000/svg">
  <path class="st83" d="M 207.344 394.552 C 199.967 394.552 192.59 393.129 185.742 390.124 L 39.795 326.082 C 23.988 319.123 13.451 305.049 12.221 289.236 L 0.981 143.439 C -0.248 127.626 8.006 112.287 22.584 103.432 L 157.114 21.677 C 171.692 12.823 190.484 11.715 206.289 18.516 L 352.237 82.558 C 368.043 89.516 378.58 103.59 379.81 119.403 L 391.05 265.2 C 392.279 281.013 384.025 296.352 369.449 305.207 L 234.917 386.962 C 226.662 392.022 217.004 394.552 207.344 394.552 Z M 184.688 14.878 C 175.205 14.878 165.721 17.408 157.465 22.311 L 22.935 104.064 C 8.533 112.761 0.455 127.784 1.684 143.439 L 12.924 289.236 C 14.154 304.733 24.516 318.649 40.146 325.448 L 186.092 389.492 C 201.724 396.291 220.164 395.185 234.566 386.488 L 369.096 304.733 C 383.498 296.035 391.578 281.013 390.348 265.359 L 379.108 119.561 C 377.879 104.064 367.516 90.149 351.885 83.348 L 205.939 19.305 C 199.265 16.301 192.064 14.878 184.688 14.878 Z" style="fill: rgb(232, 232, 232); opacity: 0.8; stroke-miterlimit: 8;"/>
</svg>